<svg width="314" height="267" viewBox="0 0 314 267" fill="none" xmlns="http://www.w3.org/2000/svg">
<g clip-path="url(#clip0_159_478)">
<path d="M104.606 266.487C160.76 266.487 206.282 257.613 206.282 246.666C206.282 235.719 160.76 226.845 104.606 226.845C48.4513 226.845 2.9292 235.719 2.9292 246.666C2.9292 257.613 48.4513 266.487 104.606 266.487Z" fill="#3F3D56"/>
<path d="M23.2167 241.894C23.2167 241.894 4.36439 236.825 0.807557 237.2C-2.74928 237.574 6.19604 219.816 12.1535 221.981C18.1109 224.147 26.0541 229.844 30.5947 221.798C35.1353 213.752 37.6827 209.42 43.2143 209.853C48.7459 210.287 56.4065 206.392 61.9345 209.853C67.4625 213.315 71.346 217.584 78.9809 217.4C86.6158 217.217 93.8543 199.895 99.8007 206.825C105.747 213.755 112.879 220.094 118.47 217.789C124.06 215.484 130.439 218.949 135.545 222.847C140.651 226.746 149.589 225.013 152.992 221.981C156.394 218.949 158.953 216.784 166.184 217.209C173.415 217.635 196.397 222.84 204.909 229.322C213.421 235.805 193.846 244.049 184.482 244.049C175.118 244.049 173.419 246.648 165.332 250.546C157.246 254.444 144.043 248.38 134.694 254.877C125.345 261.374 113.404 251.412 97.2533 254.877C81.1025 258.342 84.4868 263.103 75.1231 259.649C65.7593 256.195 69.1656 254.877 55.5476 254.018C41.9296 253.159 27.0379 256.184 25.7605 250.553C24.4831 244.923 15.9819 243.623 10.8724 241.891C5.7629 240.158 23.2167 241.894 23.2167 241.894Z" fill="#3F3D56"/>
<path d="M258.034 195.175L258.768 194.705L258.985 194.565C257.377 194.292 255.911 193.48 254.827 192.263C253.742 191.045 253.105 189.495 253.02 187.867C252.934 186.238 253.406 184.63 254.357 183.305C255.307 181.981 256.681 181.02 258.251 180.58L258.214 183.539L259.84 180.32C260.782 180.276 261.723 180.418 262.61 180.738C263.497 181.057 264.313 181.549 265.01 182.184C265.707 182.819 266.272 183.585 266.673 184.439C267.074 185.292 267.303 186.216 267.347 187.158C267.347 187.297 267.347 187.43 267.347 187.565C267.92 186.942 268.397 186.237 268.763 185.473C269.453 183.935 269.465 182.199 269.413 180.085C269.303 175.9 269.123 171.683 268.888 167.476C267.191 167.288 265.616 166.501 264.447 165.255C263.278 164.01 262.592 162.388 262.512 160.682C262.501 160.465 262.501 160.248 262.512 160.032C262.512 159.977 262.512 159.922 262.512 159.87C262.512 159.661 262.545 159.456 262.578 159.25C262.577 159.217 262.577 159.184 262.578 159.151C262.604 158.979 262.641 158.81 262.681 158.641C262.681 158.578 262.714 158.516 262.729 158.454C262.78 158.27 262.835 158.087 262.901 157.91C262.923 157.852 262.945 157.797 262.971 157.738C263.023 157.606 263.078 157.477 263.136 157.349C263.166 157.283 263.195 157.213 263.228 157.147L263.254 157.095C264.013 155.597 265.274 154.413 266.816 153.747C268.359 153.082 270.085 152.978 271.696 153.454L271.649 157.305L273.256 154.126C274.298 154.726 275.172 155.578 275.798 156.605C276.424 157.631 276.782 158.798 276.839 159.999C276.868 160.621 276.815 161.244 276.681 161.853C276.681 161.904 276.652 161.952 276.641 162.003C276.63 162.055 276.593 162.194 276.567 162.286C276.541 162.378 276.497 162.524 276.457 162.653C276.417 162.781 276.398 162.829 276.365 162.917C276.332 163.005 276.259 163.167 276.204 163.284C276.171 163.354 276.141 163.427 276.108 163.501C276.017 163.684 275.917 163.868 275.811 164.044C275.774 164.106 275.73 164.165 275.694 164.224C275.616 164.341 275.539 164.462 275.455 164.591C275.371 164.719 275.349 164.73 275.293 164.796C275.238 164.863 275.136 164.995 275.051 165.09C274.967 165.186 274.93 165.222 274.868 165.288C274.805 165.354 274.691 165.472 274.596 165.56L274.409 165.736L274.082 166.008L273.913 166.14C273.741 166.265 273.568 166.382 273.385 166.507L273.282 166.566C273.131 166.658 272.975 166.743 272.816 166.819L272.61 166.911C272.482 166.969 272.35 167.028 272.214 167.076L271.979 167.16C271.847 167.208 271.715 167.248 271.579 167.285L271.337 167.348C271.19 167.384 271.039 167.414 270.889 167.439H270.859C270.957 169.216 271.045 170.991 271.124 172.765C271.551 171.886 272.154 171.104 272.895 170.466C273.636 169.829 274.499 169.349 275.432 169.057C276.365 168.766 277.348 168.667 278.32 168.769C279.292 168.871 280.233 169.17 281.086 169.649L279.819 173.129L282.429 170.622C283.828 171.901 284.663 173.683 284.749 175.577C284.781 176.242 284.72 176.908 284.565 177.556C284.24 178.96 283.5 180.234 282.44 181.212C281.381 182.19 280.051 182.826 278.625 183.037C277.199 183.248 275.742 183.025 274.445 182.396C273.147 181.767 272.069 180.762 271.351 179.512C271.351 179.692 271.351 179.879 271.351 180.052C271.399 181.916 271.458 184.236 270.529 186.292C269.865 187.627 268.97 188.835 267.886 189.86C267.233 190.524 266.557 191.166 265.867 191.79C265.185 192.703 264.295 193.442 263.272 193.945C262.134 194.821 260.957 195.642 259.741 196.408L259.106 196.87C258.423 197.296 257.722 197.729 257.036 198.181L257.403 198.151C258.924 198.08 260.428 198.495 261.698 199.335C262.969 200.175 263.939 201.397 264.469 202.824L259.983 206.495L264.92 205.35C264.916 206.561 264.605 207.751 264.018 208.811C263.43 209.87 262.585 210.764 261.559 211.409C260.534 212.054 259.363 212.43 258.153 212.501C256.944 212.572 255.737 212.337 254.643 211.817C254.756 211.953 254.866 212.093 254.977 212.232L255.63 213.047C258.566 216.747 259.363 220.256 257.917 222.932L256.158 221.981C257.564 219.375 255.45 216.042 254.063 214.273C253.853 214.005 253.637 213.737 253.42 213.469C251.556 211.153 249.441 208.525 249.493 205.302C249.529 200.442 254.246 197.52 258.034 195.175Z" fill="#F1F1F1"/>
<path d="M222.557 190.282L221.431 189.577C221.32 189.511 221.214 189.441 221.108 189.371C223.512 188.959 225.705 187.742 227.326 185.919C228.947 184.095 229.9 181.775 230.028 179.339C230.156 176.903 229.452 174.496 228.031 172.513C226.61 170.53 224.557 169.089 222.209 168.427L222.264 172.857L219.83 168.038H219.801C218.39 167.972 216.981 168.185 215.653 168.664C214.324 169.143 213.104 169.879 212.06 170.83C211.016 171.781 210.17 172.928 209.57 174.206C208.97 175.484 208.627 176.868 208.561 178.279C208.561 178.484 208.561 178.686 208.561 178.888C207.702 177.953 206.985 176.895 206.436 175.75C205.405 173.452 205.386 170.849 205.467 167.674C205.629 161.405 205.9 155.088 206.253 148.793C208.793 148.51 211.15 147.33 212.899 145.466C214.648 143.602 215.676 141.175 215.796 138.621C215.796 138.291 215.796 137.968 215.796 137.645V137.403C215.774 137.091 215.745 136.782 215.697 136.478C215.697 136.426 215.697 136.378 215.671 136.327C215.627 136.07 215.572 135.817 215.51 135.564C215.488 135.468 215.466 135.376 215.44 135.281C215.363 135.006 215.282 134.738 215.183 134.47C215.154 134.382 215.117 134.297 215.08 134.209C215.003 134.011 214.923 133.82 214.834 133.629C214.787 133.526 214.743 133.427 214.695 133.328C214.681 133.303 214.669 133.277 214.658 133.251C213.799 131.556 212.505 130.12 210.909 129.088C209.313 128.056 207.472 127.466 205.573 127.378C204.379 127.324 203.183 127.468 202.035 127.804L202.105 133.57L199.7 128.799C197.72 129.929 196.153 131.662 195.228 133.747C194.304 135.831 194.07 138.157 194.562 140.383C194.562 140.457 194.602 140.53 194.62 140.607C194.653 140.75 194.69 140.89 194.727 141.029C194.764 141.169 194.837 141.396 194.896 141.561C194.954 141.727 194.984 141.826 195.035 141.954C195.105 142.145 195.189 142.321 195.274 142.516C195.321 142.626 195.365 142.736 195.417 142.842C195.553 143.118 195.7 143.389 195.861 143.654C195.916 143.749 195.978 143.837 196.037 143.925C196.155 144.105 196.268 144.292 196.404 144.454C196.481 144.56 196.566 144.659 196.647 144.762C196.727 144.865 196.885 145.06 197.014 145.203L197.285 145.5C197.417 145.639 197.553 145.775 197.693 145.907L197.975 146.168C198.133 146.308 198.298 146.443 198.467 146.572C198.552 146.638 198.632 146.708 198.72 146.774C198.974 146.961 199.234 147.141 199.506 147.302C199.557 147.335 199.612 147.361 199.664 147.39C199.891 147.523 200.123 147.651 200.358 147.757L200.67 147.897C200.864 147.985 201.059 148.069 201.261 148.143C201.378 148.191 201.495 148.231 201.628 148.271C201.826 148.337 202.028 148.4 202.23 148.455L202.597 148.55C202.821 148.602 203.044 148.646 203.268 148.686H203.312C203.161 151.344 203.029 154.001 202.916 156.659C202.275 155.343 201.372 154.172 200.262 153.217C199.152 152.263 197.858 151.545 196.461 151.109C195.064 150.672 193.592 150.526 192.136 150.679C190.68 150.831 189.271 151.28 187.995 151.997L189.896 157.202L185.987 153.451C184.949 154.399 184.107 155.542 183.512 156.816C182.916 158.089 182.577 159.468 182.515 160.873C182.465 161.868 182.556 162.865 182.786 163.835C183.275 165.933 184.384 167.836 185.968 169.297C187.553 170.757 189.54 171.707 191.671 172.024C193.802 172.34 195.98 172.009 197.92 171.072C199.861 170.135 201.475 168.637 202.553 166.771C202.553 167.043 202.553 167.315 202.527 167.582C202.457 170.376 202.365 173.848 203.757 176.95C204.7 179.053 206.22 180.756 207.717 182.287C208.696 183.285 209.704 184.25 210.742 185.179C211.761 186.549 213.09 187.656 214.622 188.41C216.335 189.719 218.099 190.942 219.915 192.08L221.053 192.785C222.073 193.42 223.123 194.073 224.151 194.749C223.971 194.749 223.783 194.712 223.607 194.705C221.329 194.597 219.076 195.217 217.174 196.475C215.271 197.733 213.818 199.563 213.025 201.701L219.738 207.167L212.349 205.456C212.353 207.274 212.817 209.061 213.698 210.651C214.579 212.241 215.848 213.582 217.387 214.549C218.927 215.516 220.686 216.077 222.501 216.18C224.316 216.283 226.127 215.925 227.766 215.139C227.597 215.345 227.432 215.55 227.267 215.759C226.937 216.171 226.606 216.578 226.287 216.982C221.915 222.521 220.7 227.773 222.862 231.782L225.498 230.361C223.391 226.459 226.558 221.467 228.636 218.839C228.948 218.439 229.271 218.039 229.598 217.635C232.391 214.166 235.555 210.231 235.471 205.408C235.291 198.173 228.232 193.809 222.557 190.282Z" fill="#F1F1F1"/>
<path d="M168.104 245.77C168.104 245.77 155.4 242.408 153.006 242.654C150.613 242.9 156.637 231.15 160.649 232.582C164.661 234.013 170.016 237.787 173.074 232.461C176.131 227.135 177.845 224.268 181.579 224.554C185.312 224.841 190.465 222.26 194.191 224.554C197.917 226.848 200.53 229.671 205.676 229.55C210.822 229.429 215.693 217.962 219.705 222.546C223.717 227.131 228.515 231.334 232.281 229.807C236.047 228.28 240.356 230.574 243.788 233.155C247.22 235.735 253.248 234.59 255.534 232.582C257.821 230.574 259.55 229.143 264.425 229.429C269.299 229.715 284.778 233.155 290.512 237.457C296.245 241.758 283.057 247.202 276.751 247.202C270.444 247.202 269.295 248.924 263.848 251.504C258.401 254.084 249.514 250.069 243.208 254.371C236.902 258.673 228.875 252.077 217.98 254.371C207.086 256.665 209.38 259.818 203.07 257.524C196.76 255.23 199.058 254.371 189.885 253.798C180.712 253.226 170.677 255.23 169.814 251.504C168.952 247.778 163.207 246.916 159.782 245.77C156.358 244.625 168.104 245.77 168.104 245.77Z" fill="#3F3D56"/>
<path d="M273.319 206.135L268.4 221.21L268.187 221.867L259.954 247.107L245.859 256.632L177.412 227.85L183.898 201.62L184.243 200.24L187.716 186.2L187.723 186.167L208.793 183.531L273.319 206.135Z" fill="#F8CE6D"/>
<path opacity="0.1" d="M273.319 206.135L259.954 247.107L245.859 256.632L258.798 211.92L187.716 186.2L187.723 186.167L208.793 183.531L273.319 206.135Z" fill="black"/>
<path opacity="0.1" d="M203.074 189.012L201.939 188.321L213.311 187.129L262.028 204.351L260.655 205.071L212.595 188.123L203.074 189.012Z" fill="black"/>
<path opacity="0.1" d="M268.4 221.21L254.173 227.902L184.243 200.24L183.898 201.62L253.89 228.886L268.187 221.867" fill="black"/>
<path d="M192.689 196.103C193.09 194.812 192.285 193.414 190.891 192.981C189.497 192.548 188.042 193.244 187.641 194.536C187.24 195.827 188.045 197.225 189.439 197.658C190.833 198.09 192.288 197.394 192.689 196.103Z" fill="#3F3D56"/>
<path d="M254.323 219.967C254.724 218.676 253.919 217.278 252.525 216.845C251.131 216.413 249.676 217.109 249.275 218.4C248.874 219.691 249.679 221.089 251.073 221.522C252.467 221.955 253.922 221.259 254.323 219.967Z" fill="#3F3D56"/>
<path d="M244.583 249.606C244.984 248.314 244.179 246.917 242.785 246.484C241.391 246.051 239.936 246.747 239.535 248.038C239.134 249.33 239.939 250.727 241.333 251.16C242.727 251.593 244.182 250.897 244.583 249.606Z" fill="#3F3D56"/>
<path d="M185.148 224.738C185.549 223.447 184.744 222.049 183.351 221.616C181.957 221.184 180.502 221.88 180.101 223.171C179.7 224.462 180.505 225.86 181.898 226.293C183.292 226.726 184.748 226.03 185.148 224.738Z" fill="#3F3D56"/>
<path d="M196.052 187.709C195.905 188.186 194.727 187.709 193.229 187.239C191.732 186.769 190.564 186.255 190.711 185.77C190.858 185.286 192.268 185.036 193.765 185.502C195.263 185.969 196.202 187.231 196.052 187.709Z" fill="#3F3D56"/>
<path d="M203.592 185.989C203.74 185.512 202.758 184.784 201.399 184.362C200.04 183.94 198.818 183.984 198.67 184.46C198.522 184.937 199.504 185.665 200.863 186.087C202.223 186.509 203.444 186.465 203.592 185.989Z" fill="#3F3D56"/>
<path d="M227.751 199.315C227.605 199.792 226.133 199.352 224.705 198.908C223.277 198.463 222.165 197.968 222.312 197.491C222.458 197.014 223.813 196.757 225.248 197.186C226.683 197.616 227.906 198.831 227.751 199.315Z" fill="#3F3D56"/>
<path d="M258.203 210.25C258.038 210.786 256.474 210.32 254.958 209.85C253.442 209.38 252.264 208.84 252.429 208.304C252.594 207.768 254.044 207.442 255.56 207.912C257.076 208.381 258.372 209.714 258.203 210.25Z" fill="#3F3D56"/>
<path d="M267.108 208.965C266.939 209.501 265.379 209.035 263.863 208.565C262.347 208.095 261.165 207.556 261.334 207.02C261.503 206.484 262.949 206.157 264.465 206.627C265.981 207.097 267.273 208.429 267.108 208.965Z" fill="#3F3D56"/>
<path d="M271.498 206.348C271.329 206.884 270.03 206.502 268.789 206.113C267.548 205.724 266.587 205.254 266.737 204.718C266.888 204.182 268.139 203.786 269.391 204.175C270.643 204.564 271.663 205.812 271.498 206.348Z" fill="#3F3D56"/>
<path d="M242.093 195.622C241.96 196.048 240.624 195.655 239.354 195.255C238.084 194.855 237.068 194.407 237.203 193.982C237.339 193.556 238.55 193.31 239.835 193.706C241.12 194.103 242.221 195.193 242.093 195.622Z" fill="#3F3D56"/>
<path d="M213.514 185.56C213.662 185.084 212.831 184.402 211.658 184.038C210.484 183.674 209.413 183.764 209.266 184.241C209.118 184.717 209.949 185.398 211.122 185.763C212.295 186.127 213.366 186.036 213.514 185.56Z" fill="#3F3D56"/>
<path opacity="0.1" d="M226.805 213.722C226.961 213.218 226.941 212.676 226.747 212.184C226.554 211.693 226.198 211.283 225.74 211.021C225.958 210.772 226.122 210.481 226.221 210.165C226.34 209.782 226.358 209.375 226.272 208.983C226.187 208.591 226.001 208.228 225.733 207.929C225.466 207.63 225.125 207.406 224.745 207.278C224.364 207.15 223.957 207.123 223.563 207.2C223.718 206.667 223.677 206.096 223.447 205.591C223.217 205.086 222.814 204.68 222.31 204.447C221.807 204.214 221.236 204.169 220.703 204.321C220.169 204.472 219.707 204.81 219.401 205.272C219.102 205.057 218.757 204.915 218.393 204.859C218.029 204.803 217.657 204.835 217.307 204.952C216.958 205.068 216.641 205.266 216.384 205.53C216.126 205.793 215.935 206.114 215.826 206.465C215.826 206.517 215.8 206.565 215.789 206.612L215.708 206.653C215.451 206.421 215.144 206.249 214.811 206.151C214.479 206.053 214.128 206.031 213.786 206.086C213.444 206.142 213.118 206.273 212.833 206.471C212.548 206.668 212.311 206.927 212.14 207.229C211.968 207.53 211.866 207.866 211.842 208.212C211.817 208.558 211.87 208.905 211.998 209.227C212.125 209.55 212.323 209.84 212.577 210.076C212.831 210.312 213.134 210.488 213.465 210.591C213.585 210.629 213.708 210.656 213.832 210.672L213.862 211.524L224.969 216.064L224.896 215.33C225.334 215.271 225.746 215.088 226.084 214.804C226.422 214.519 226.672 214.144 226.805 213.722Z" fill="black"/>
<path opacity="0.1" d="M224.209 221.012C223.972 221.484 223.58 221.86 223.1 222.08C222.619 222.3 222.079 222.349 221.566 222.22C221.554 222.55 221.47 222.873 221.32 223.167C221.184 223.439 220.995 223.682 220.764 223.881C220.533 224.081 220.265 224.233 219.976 224.328C219.687 224.424 219.381 224.462 219.077 224.44C218.773 224.417 218.476 224.335 218.204 224.198C217.864 224.026 217.57 223.774 217.349 223.464C217.089 223.953 216.663 224.332 216.149 224.535C215.634 224.737 215.063 224.748 214.541 224.567C214.018 224.386 213.577 224.024 213.298 223.546C213.018 223.069 212.919 222.507 213.017 221.963C212.762 221.928 212.514 221.851 212.283 221.735C211.734 221.459 211.317 220.976 211.123 220.392C210.93 219.809 210.976 219.172 211.252 218.623L211.325 218.487L211.296 218.402C210.96 218.392 210.63 218.308 210.331 218.156C209.779 217.877 209.361 217.39 209.169 216.802C208.976 216.215 209.025 215.575 209.305 215.023C209.584 214.472 210.071 214.054 210.659 213.862C211.246 213.669 211.886 213.718 212.437 213.998C212.546 214.052 212.65 214.115 212.75 214.185L213.359 213.594L224.532 218.061L223.971 218.538C224.241 218.885 224.407 219.302 224.449 219.74C224.491 220.179 224.408 220.62 224.209 221.012Z" fill="black"/>
<path opacity="0.1" d="M217.389 208.727L214.691 217.47C214.492 218.111 214.546 218.804 214.841 219.407C215.137 220.009 215.652 220.476 216.281 220.711C216.615 220.835 216.971 220.89 217.328 220.872C217.684 220.854 218.033 220.764 218.353 220.607C218.673 220.449 218.958 220.228 219.19 219.957C219.422 219.686 219.596 219.371 219.702 219.03L222.4 210.283C222.503 209.944 222.536 209.587 222.497 209.234C222.459 208.882 222.349 208.541 222.175 208.232C222 207.923 221.765 207.653 221.483 207.437C221.201 207.222 220.879 207.066 220.535 206.979C219.887 206.814 219.2 206.903 218.615 207.228C218.03 207.553 217.591 208.089 217.389 208.727Z" fill="black"/>
<path d="M217.507 209.259L215.058 217.099C214.879 217.674 214.927 218.296 215.193 218.836C215.458 219.376 215.922 219.794 216.486 220.003C216.786 220.114 217.105 220.163 217.425 220.146C217.744 220.13 218.056 220.049 218.343 219.908C218.63 219.766 218.885 219.568 219.093 219.325C219.3 219.082 219.456 218.799 219.551 218.494L221.985 210.65C222.079 210.344 222.111 210.023 222.077 209.705C222.043 209.387 221.945 209.079 221.788 208.8C221.632 208.521 221.42 208.277 221.166 208.083C220.912 207.888 220.621 207.748 220.311 207.669C219.729 207.529 219.115 207.614 218.595 207.91C218.074 208.205 217.685 208.687 217.507 209.259Z" fill="#3F3D56"/>
<path d="M185.591 249.783C185.591 249.783 172.887 246.42 170.493 246.67C168.1 246.919 174.124 235.162 178.136 236.598C182.148 238.033 187.503 241.799 190.561 236.473C193.618 231.147 195.333 228.284 199.066 228.57C202.799 228.856 207.952 226.276 211.678 228.57C215.404 230.864 218.017 233.683 223.163 233.562C228.309 233.441 233.18 221.974 237.196 226.562C241.212 231.15 246.006 235.346 249.772 233.823C253.538 232.299 257.847 234.59 261.275 237.17C264.704 239.751 270.738 238.602 273.021 236.598C275.304 234.593 277.033 233.155 281.908 233.441C286.783 233.727 302.262 237.17 307.995 241.469C313.729 245.767 300.544 251.218 294.234 251.218C287.924 251.218 286.783 252.936 281.335 255.516C275.888 258.096 266.998 254.084 260.692 258.383C254.386 262.681 246.358 256.092 235.464 258.383C224.569 260.673 226.863 263.83 220.557 261.54C214.251 259.249 216.541 258.383 207.369 257.81C198.196 257.238 188.16 259.245 187.301 255.516C186.442 251.787 180.712 250.931 177.269 249.783C173.826 248.634 185.591 249.783 185.591 249.783Z" fill="#3F3D56"/>
<path d="M293.423 240.121C294.524 238.099 293.276 235.618 291.852 233.815C290.427 232.013 288.687 230.145 288.724 227.836C288.779 224.532 292.285 222.583 295.085 220.829C297.165 219.53 299.082 217.989 300.797 216.237C301.517 215.564 302.111 214.768 302.551 213.887C303.131 212.595 303.117 211.127 303.08 209.714C302.96 205.001 302.726 200.291 302.379 195.586" stroke="#3F3D56" stroke-width="4" stroke-miterlimit="10"/>
<path d="M307.705 195.329C307.666 194.466 307.41 193.627 306.961 192.889C306.512 192.151 305.884 191.538 305.136 191.108L303.983 193.391L304.02 190.627C303.468 190.465 302.894 190.395 302.32 190.421C301.306 190.471 300.33 190.821 299.515 191.425C298.699 192.03 298.081 192.862 297.738 193.818C297.395 194.773 297.343 195.809 297.588 196.794C297.833 197.779 298.364 198.669 299.114 199.353C299.865 200.036 300.801 200.482 301.805 200.635C302.808 200.787 303.835 200.638 304.754 200.208C305.673 199.777 306.444 199.084 306.97 198.216C307.496 197.347 307.753 196.343 307.709 195.329H307.705Z" fill="#57B793"/>
<path d="M298.518 230.196C297.977 231.243 297.093 232.073 296.014 232.546C294.934 233.019 293.725 233.107 292.589 232.795C291.452 232.483 290.458 231.789 289.772 230.831C289.086 229.872 288.75 228.708 288.821 227.531C288.892 226.355 289.365 225.238 290.161 224.369C290.957 223.5 292.027 222.931 293.193 222.757C294.359 222.583 295.548 222.815 296.563 223.415C297.578 224.014 298.356 224.944 298.767 226.048L295.548 228.68L299.09 227.862C299.087 228.674 298.89 229.474 298.518 230.196Z" fill="#57B793"/>
<path d="M295.974 220.194C294.694 220.283 293.428 219.89 292.423 219.093C291.418 218.296 290.748 217.152 290.543 215.885C290.339 214.619 290.616 213.322 291.319 212.25C292.022 211.177 293.101 210.406 294.344 210.088L294.318 212.21L295.482 209.901C296.159 209.867 296.836 209.966 297.474 210.194C298.112 210.423 298.699 210.775 299.2 211.23C299.702 211.686 300.108 212.237 300.396 212.85C300.684 213.464 300.848 214.128 300.878 214.805C300.908 215.4 300.833 215.995 300.657 216.563C300.347 217.578 299.73 218.472 298.892 219.122C298.053 219.772 297.034 220.146 295.974 220.194Z" fill="#57B793"/>
<path d="M308.479 211.872C307.689 211.901 306.902 211.747 306.18 211.422C305.459 211.097 304.822 210.61 304.32 209.999C303.818 209.387 303.463 208.668 303.285 207.897C303.106 207.126 303.108 206.325 303.29 205.555C303.472 204.785 303.829 204.067 304.334 203.458C304.839 202.848 305.478 202.364 306.201 202.042C306.924 201.72 307.711 201.57 308.502 201.602C309.292 201.635 310.065 201.849 310.759 202.23L309.849 204.726L311.721 202.927C312.724 203.846 313.322 205.125 313.383 206.484C313.408 206.961 313.365 207.439 313.255 207.904C313.001 208.996 312.396 209.975 311.534 210.691C310.672 211.407 309.599 211.822 308.479 211.872Z" fill="#57B793"/>
<path opacity="0.1" d="M307.011 196.702C305.822 196.83 304.666 197.201 303.473 197.274C302.28 197.348 300.969 197.065 300.217 196.136C299.809 195.637 299.604 195.006 299.263 194.459C298.937 193.951 298.49 193.531 297.963 193.236C297.652 193.886 297.482 194.594 297.462 195.314C297.442 196.034 297.574 196.75 297.849 197.416C298.124 198.081 298.536 198.682 299.058 199.178C299.58 199.675 300.2 200.056 300.879 200.297C301.558 200.538 302.279 200.633 302.997 200.578C303.716 200.522 304.414 200.316 305.047 199.972C305.68 199.629 306.234 199.157 306.673 198.586C307.112 198.015 307.426 197.358 307.595 196.658C307.402 196.665 307.207 196.68 307.011 196.702Z" fill="black"/>
<path opacity="0.1" d="M308.48 211.872C307.593 211.912 306.711 211.722 305.919 211.321C305.127 210.92 304.452 210.322 303.959 209.583C303.467 208.845 303.173 207.992 303.106 207.107C303.039 206.222 303.202 205.335 303.579 204.531C303.99 204.802 304.344 205.15 304.622 205.555C304.989 206.109 305.213 206.752 305.646 207.258C306.446 208.202 307.815 208.51 309.06 208.455C310.304 208.4 311.504 208.044 312.73 207.93C312.903 207.93 313.097 207.904 313.251 207.901C312.998 208.992 312.394 209.971 311.533 210.688C310.672 211.406 309.599 211.821 308.48 211.872Z" fill="black"/>
<path opacity="0.1" d="M295.974 220.194C295.094 220.237 294.218 220.053 293.43 219.661C292.642 219.268 291.968 218.679 291.472 217.951C290.977 217.223 290.677 216.38 290.602 215.502C290.526 214.625 290.677 213.743 291.04 212.94C291.469 213.219 291.842 213.573 292.142 213.987C292.542 214.552 292.791 215.205 293.243 215.726C294.113 216.692 295.574 217.033 296.891 217.004C298.209 216.974 299.395 216.662 300.661 216.563C300.351 217.579 299.733 218.473 298.894 219.123C298.054 219.773 297.034 220.147 295.974 220.194Z" fill="black"/>
<path opacity="0.1" d="M298.518 230.196C297.96 231.441 296.931 232.414 295.657 232.9C294.382 233.387 292.966 233.347 291.721 232.789C290.476 232.232 289.504 231.203 289.017 229.928C288.531 228.654 288.571 227.238 289.128 225.993C289.551 226.272 289.931 226.612 290.255 227.003C290.747 227.597 291.07 228.276 291.635 228.838C292.689 229.873 294.388 230.306 295.904 230.339C296.777 230.343 297.65 230.296 298.518 230.196Z" fill="black"/>
<path d="M285.652 237.791C285.652 237.791 289.719 237.666 290.945 236.792C292.171 235.919 297.185 234.88 297.504 236.278C297.824 237.677 303.612 243.252 299.024 243.274C294.436 243.297 288.357 242.562 287.135 241.806C285.912 241.05 285.652 237.791 285.652 237.791Z" fill="#656380"/>
<path opacity="0.2" d="M299.116 242.79C294.524 242.827 288.449 242.056 287.227 241.322C286.294 240.753 285.923 238.719 285.799 237.78H285.663C285.663 237.78 285.92 241.061 287.131 241.817C288.342 242.573 294.428 243.311 299.02 243.285C300.345 243.285 300.801 242.805 300.779 242.107C300.584 242.518 300.092 242.779 299.116 242.79Z" fill="black"/>
</g>
<defs>
<clipPath id="clip0_159_478">
<rect width="313.391" height="266.488" fill="white"/>
</clipPath>
</defs>
</svg>
